<?xml version="1.0" standalone="no"?>
<!DOCTYPE svg PUBLIC "-//W3C//DTD SVG 20010904//EN"
 "http://www.w3.org/TR/2001/REC-SVG-20010904/DTD/svg10.dtd">
<svg version="1.0" xmlns="http://www.w3.org/2000/svg"
 width="493.000000pt" height="493.000000pt" viewBox="0 0 493.000000 493.000000"
 preserveAspectRatio="xMidYMid meet">
<metadata>
Created by potrace 1.14, written by Peter Selinger 2001-2017
</metadata>
<g transform="translate(0.000000,493.000000) scale(0.100000,-0.100000)"
fill="#000000" stroke="none">
<path d="M2325 3366 c-111 -51 -145 -104 -145 -222 0 -149 62 -242 223 -336
129 -75 187 -140 187 -208 0 -23 9 -25 44 -9 13 6 22 17 20 24 -7 16 12 29 21
15 4 -6 11 -7 17 -4 6 4 1 12 -13 21 -23 13 -23 14 -1 8 13 -4 22 -2 22 4 0 6
-5 11 -11 11 -5 0 -3 10 5 22 9 12 16 30 16 40 0 10 4 18 9 18 5 0 9 12 9 26
0 30 22 50 34 31 4 -7 8 -7 8 -2 0 6 10 -1 21 -15 l21 -25 -6 27 c-17 77 -48
108 -151 153 -232 100 -301 165 -312 295 -4 44 -1 67 15 103 12 26 20 47 19
47 -1 0 -24 -11 -52 -24z"/>
<path d="M2455 3305 c-77 -76 33 -201 118 -135 14 11 28 33 32 50 7 32 -10 74
-27 64 -6 -4 -9 -1 -6 7 14 41 -79 53 -117 14z"/>
<path d="M2143 3212 c-55 -81 -76 -163 -70 -266 7 -114 42 -190 122 -265 57
-54 175 -117 200 -107 8 3 17 1 20 -4 4 -6 21 -9 38 -9 20 1 24 3 12 6 -46 10
-51 14 -32 24 9 6 17 16 17 23 0 9 9 12 25 8 26 -5 30 4 19 45 -4 13 -10 20
-15 17 -13 -7 -7 19 6 29 7 4 6 10 -1 15 -6 4 -58 37 -115 74 -113 73 -157
122 -190 208 -21 55 -25 153 -9 209 5 19 8 36 7 37 -1 2 -17 -18 -34 -44z
m347 -573 c0 -6 -4 -7 -10 -4 -5 3 -10 11 -10 16 0 6 5 7 10 4 6 -3 10 -11 10
-16z"/>
<path d="M2500 2681 c0 -5 7 -11 14 -14 10 -4 13 -1 9 9 -6 15 -23 19 -23 5z"/>
<path d="M1496 2155 c-22 -8 -48 -23 -59 -33 -50 -44 -72 -157 -43 -225 26
-64 117 -117 201 -117 43 0 120 25 147 48 94 79 88 242 -12 308 -34 23 -54 28
-118 31 -51 2 -90 -2 -116 -12z m139 -80 c40 -16 55 -46 55 -106 0 -75 -73
-120 -143 -88 -31 14 -47 48 -47 102 0 52 21 84 63 96 18 5 33 10 35 10 1 1
18 -6 37 -14z"/>
<path d="M2417 2156 c-50 -19 -76 -42 -98 -91 -56 -122 7 -248 138 -276 67
-14 152 -1 193 29 112 83 103 265 -15 326 -50 26 -163 32 -218 12z m163 -94
c18 -14 24 -32 28 -75 4 -52 2 -58 -26 -87 -33 -32 -72 -39 -115 -19 -52 24
-66 131 -22 174 30 31 101 35 135 7z"/>
<path d="M2905 2158 c-79 -28 -125 -93 -125 -178 0 -97 60 -170 157 -190 101
-21 204 13 238 80 21 41 19 57 -10 64 -37 9 -77 -4 -107 -36 -37 -40 -89 -39
-130 2 -28 28 -30 35 -26 85 6 72 27 95 86 95 35 0 51 -6 79 -31 35 -30 37
-31 111 -19 1 0 2 13 2 28 0 34 -39 74 -92 96 -42 18 -138 20 -183 4z"/>
<path d="M932 1978 l3 -183 50 0 50 0 3 68 3 67 79 0 79 0 3 -67 3 -68 50 0
50 0 3 183 2 182 -54 0 -55 0 -3 -67 -3 -68 -77 -3 -78 -3 0 71 0 70 -55 0
-55 0 2 -182z"/>
<path d="M1876 2134 c-10 -37 -5 -293 5 -321 8 -22 13 -23 121 -23 136 1 194
12 231 47 35 35 37 90 4 121 -13 12 -29 22 -35 22 -17 0 -15 17 3 24 25 9 38
55 24 87 -22 54 -50 64 -205 67 l-141 4 -7 -28z m233 -63 c8 -5 11 -16 8 -25
-5 -12 -21 -16 -67 -16 -57 0 -60 1 -60 25 0 24 3 25 53 25 28 0 58 -4 66 -9z
m29 -159 c4 -29 -20 -38 -92 -34 -55 4 -56 5 -56 33 l0 30 73 -3 c66 -3 72 -5
75 -26z"/>
<path d="M3222 2118 l3 -43 62 -3 62 -3 3 -137 3 -137 50 0 50 0 3 137 3 137
62 3 62 3 3 43 3 42 -186 0 -186 0 3 -42z"/>
<path d="M3647 2143 c-7 -25 -8 -313 -1 -335 4 -14 16 -18 59 -18 61 0 67 5
150 133 28 42 53 77 57 77 4 0 9 -46 10 -102 l3 -103 50 0 50 0 3 183 2 182
-60 0 -60 0 -72 -106 -73 -105 -5 103 -5 103 -52 3 c-42 2 -52 0 -56 -15z"/>
</g>
</svg>
